<?xml version="1.0" standalone="no"?>
<!DOCTYPE svg PUBLIC "-//W3C//DTD SVG 20010904//EN"
 "http://www.w3.org/TR/2001/REC-SVG-20010904/DTD/svg10.dtd">
<svg version="1.0" xmlns="http://www.w3.org/2000/svg"
 width="700.000000pt" height="700.000000pt" viewBox="0 0 700.000000 700.000000"
 preserveAspectRatio="xMidYMid meet">
<metadata>
Created by potrace 1.11, written by Peter Selinger 2001-2013
</metadata>
<g transform="translate(0.000000,700.000000) scale(0.100000,-0.100000)"
fill="#000000" stroke="none">
<path d="M3382 6610 c-1086 -79 -2036 -712 -2522 -1681 -144 -285 -238 -588
-293 -939 -28 -183 -31 -630 -4 -819 82 -578 302 -1085 670 -1541 90 -112 328
-345 447 -440 682 -542 1547 -768 2405 -629 503 82 989 298 1395 618 158 125
418 392 537 551 336 449 534 945 598 1495 21 180 21 515 0 690 -156 1315
-1132 2379 -2420 2640 -244 50 -579 72 -813 55z m398 -350 c887 -67 1670 -551
2124 -1311 548 -916 502 -2070 -118 -2944 -174 -247 -423 -491 -676 -664 -340
-233 -735 -386 -1155 -448 -151 -22 -561 -25 -705 -5 -1236 173 -2163 1098
-2342 2337 -18 122 -17 571 0 690 74 494 242 902 525 1278 106 141 284 328
422 444 535 448 1235 675 1925 623z"/>
<path d="M3430 5224 c-19 -2 -78 -9 -130 -15 -393 -44 -754 -173 -1015 -362
-337 -246 -595 -683 -595 -1012 0 -243 153 -412 393 -432 61 -5 70 -9 97 -40
29 -32 30 -37 30 -131 0 -54 7 -124 15 -157 42 -166 147 -301 289 -371 75 -37
86 -39 188 -43 124 -4 162 4 301 60 97 39 233 69 312 69 43 0 101 -30 115 -60
4 -8 18 -49 30 -90 29 -96 61 -160 106 -210 55 -60 108 -81 234 -90 63 -5 120
-15 138 -24 60 -31 146 -156 247 -356 28 -56 57 -98 77 -113 93 -71 243 -51
299 40 33 52 33 158 0 265 -36 117 -15 159 88 184 99 23 177 69 267 159 132
132 187 274 183 469 l-2 101 105 105 c163 162 234 313 245 516 20 371 -187
787 -537 1079 -279 232 -615 384 -978 441 -93 14 -429 27 -502 18z m470 -220
c272 -39 508 -130 745 -289 118 -79 268 -206 326 -276 176 -214 289 -486 289
-693 0 -200 -74 -348 -237 -472 -127 -98 -143 -116 -143 -164 0 -23 5 -51 12
-63 21 -39 27 -101 17 -167 -29 -194 -190 -350 -361 -350 -37 0 -70 5 -73 10
-12 20 -85 50 -120 50 -66 0 -122 -43 -131 -101 -4 -27 6 -58 51 -154 103
-218 140 -325 112 -325 -9 0 -38 45 -71 111 -31 62 -84 151 -117 200 -112 164
-183 207 -361 218 l-112 8 -32 36 c-49 58 -69 134 -67 253 3 96 2 102 -23 125
-21 20 -40 25 -112 31 -103 8 -313 -6 -397 -26 -33 -8 -105 -34 -160 -57 -229
-95 -405 -48 -495 134 -53 109 -59 242 -12 307 11 15 75 53 155 92 118 58 139
72 153 101 22 46 12 99 -23 127 -30 24 -65 25 -122 6 -62 -23 -306 -67 -396
-73 -145 -10 -252 33 -296 119 -86 168 83 573 346 833 182 179 432 311 739
390 311 80 627 100 916 59z"/>
</g>
</svg>
